<svg id="Layer_1" data-name="Layer 1" xmlns="http://www.w3.org/2000/svg" viewBox="0 0 1000 1000"><defs><style>.cls-1{fill:#fff;}</style></defs><path class="cls-1" d="M922.43,89.92H77.3L0,752.25,66.67,910.08H933.33L1000,752.25ZM233.89,647.58a86.23,86.23,0,1,1,86.22-86.22A86.23,86.23,0,0,1,233.89,647.58Zm0-258.85a86.23,86.23,0,1,1,86.22-86.23A86.23,86.23,0,0,1,233.89,388.73ZM500,647.58a86.23,86.23,0,1,1,86.22-86.22A86.22,86.22,0,0,1,500,647.58Zm0-258.85a86.23,86.23,0,1,1,86.22-86.23A86.23,86.23,0,0,1,500,388.73ZM766.11,647.58a86.23,86.23,0,1,1,86.23-86.22A86.22,86.22,0,0,1,766.11,647.58Zm0-258.85a86.23,86.23,0,1,1,86.23-86.23A86.23,86.23,0,0,1,766.11,388.73Z"/></svg>