<svg id="Layer_1" data-name="Layer 1" xmlns="http://www.w3.org/2000/svg" viewBox="0 0 4000 1000"><defs><style>.cls-1{fill:#71a8c8;}.cls-2{fill:#b8c6ae;}.cls-3{fill:#231f20;}</style></defs><polygon class="cls-1" points="1161.66 0 913.24 0 496.83 0 496.83 0 248.41 0 0 500 248.41 1000 496.83 1000 496.83 1000 913.24 1000 1161.66 1000 1410.07 500 1161.66 0"/><circle class="cls-2" cx="705.04" cy="500" r="431.87"/><path class="cls-3" d="M1704.89,179.12h190.36a405.24,405.24,0,0,1,84.75,8.61q40.32,8.63,71.61,29t49.85,54.39q18.57,34,18.59,83.85,0,52.57-20,87t-51.21,54.38a209.7,209.7,0,0,1-68.44,28.1,330,330,0,0,1-70.7,8.16H1781V820.88h-76.14ZM1781,461.93h128.72q57.11,0,92.91-25.84t35.81-80.22q0-54.37-35.81-80.22t-92.91-25.83H1781Z"/><path class="cls-3" d="M2230.62,179.12h246.56a334.67,334.67,0,0,1,67.08,7.25,331,331,0,0,1,70.25,23.11,326.89,326.89,0,0,1,67.07,41.25,274.87,274.87,0,0,1,56.66,61.18q24.47,35.82,39,82.49T2791.72,500q0,58.93-14.51,105.6t-39,82.49a274.22,274.22,0,0,1-56.66,61.18,327.6,327.6,0,0,1-137.32,64.36,333.21,333.21,0,0,1-67.08,7.25H2230.62Zm76.14,571.06h145q55.27,0,102.43-14.5t81.58-44.87q34.44-30.36,54.39-77.5T2710.14,500q0-66.15-19.94-113.31t-54.39-77.5q-34.47-30.36-81.58-44.87t-102.43-14.5h-145Z"/><path class="cls-3" d="M2914.09,179.12h190.35a405.34,405.34,0,0,1,84.76,8.61q40.32,8.63,71.6,29t49.86,54.39q18.57,34,18.58,83.85,0,52.57-19.94,87t-51.21,54.38a209.7,209.7,0,0,1-68.44,28.1,330.17,330.17,0,0,1-70.7,8.16H2990.23V820.88h-76.14Zm76.14,282.81H3119q57.11,0,92.91-25.84t35.8-80.22q0-54.37-35.8-80.22T3119,249.82H2990.23Z"/><path class="cls-3" d="M3411.72,570.7H3633.8V636H3411.72Z"/><path class="cls-3" d="M4000,820.88h-76.14V277H3922l-115.11,97-45.33-55.29,172.23-139.59H4000Z"/></svg>