<svg id="Layer_1" data-name="Layer 1" xmlns="http://www.w3.org/2000/svg" viewBox="0 0 1000 1000"><defs><style>.cls-1{fill:#707071;}.cls-2{fill:#606161;}.cls-3{fill:#7f8080;}.cls-4{fill:#c62127;}</style></defs><circle class="cls-1" cx="500" cy="500" r="337.06"/><path class="cls-2" d="M245.57,500c0,124.64,89.63,228.33,207.94,250.17a10,10,0,0,0,11.88-9.82V259.65a10,10,0,0,0-11.88-9.82C335.2,271.67,245.57,375.36,245.57,500Z"/><path class="cls-2" d="M754.43,500c0-124.64-89.63-228.33-207.94-250.17a10,10,0,0,0-11.88,9.82v480.7a10,10,0,0,0,11.88,9.82C664.8,728.33,754.43,624.64,754.43,500Z"/><ellipse class="cls-3" cx="500" cy="491.67" rx="187.5" ry="174.49"/><ellipse class="cls-3" cx="500" cy="830.69" rx="69.87" ry="55.54"/><polygon class="cls-3" points="676.24 551.37 567.26 845.8 432.75 845.8 323.76 551.37 676.24 551.37"/><ellipse class="cls-4" cx="500" cy="830.69" rx="59.39" ry="47.21"/></svg>