<svg id="Layer_1" data-name="Layer 1" xmlns="http://www.w3.org/2000/svg" viewBox="0 0 4000 1000"><defs><style>.cls-1{fill:#72a8c8;}.cls-2{fill:#3f443c;}.cls-3{fill:#fff;}</style></defs><polygon class="cls-1" points="1109.64 0 109.64 0 0 508.84 109.64 1000 1109.64 1000 1219.27 491.16 1109.64 0"/><circle class="cls-2" cx="609.64" cy="500" r="413.21"/><path class="cls-3" d="M1554.29,569.57V746.18h128.44q13.38,0,19.18,5.12t5.8,13.61a17.48,17.48,0,0,1-5.8,13.38q-5.81,5.34-19.18,5.35H1466.44q-13.38,0-19.18-5.35a17.44,17.44,0,0,1-5.8-13.38q0-8.48,5.8-13.61t19.18-5.12h50.39V299.31h-50.39q-13.38,0-19.18-5.13t-5.8-13.6q0-8.46,5.8-13.6t19.18-5.13h217.63q77.15,0,126,45.49t48.83,106.59q0,36.12-15.83,65.11t-38.13,45.49q-33.45,25-69.13,36.57-25.86,8.48-64.22,8.47Zm0-37.46h119.52a169.14,169.14,0,0,0,77.83-18.51q36.34-18.5,53.07-45.26t16.72-54.41q0-44.16-37.91-79.39t-95.88-35.23H1554.29Z"/><path class="cls-3" d="M2036.83,746.18V299.31h-31.66q-13.38,0-19.18-5.13t-5.79-13.6q0-8.46,5.79-13.6t19.18-5.13h201.58q47.27,0,86.3,19.62t59.53,44.6q35.24,42.38,53.52,89.64Q2419,450.06,2419,496.88v51.73q0,57.52-25.42,111.49t-84.73,94.1q-44.16,29.44-102.13,29.44H2005.17q-13.38,0-19.18-5.35a17.47,17.47,0,0,1-5.79-13.38q0-8.48,5.79-13.61t19.18-5.12Zm37.47,0h136q47.26,0,88.52-30.78t62-73.8q20.74-43,20.74-85V488.85q0-34.78-11.15-62-16.05-39.69-45.49-75.37-16-19.62-47.27-35.9a143.52,143.52,0,0,0-67.34-16.28h-136Z"/><path class="cls-3" d="M2650.49,569.57V746.18h128.44q13.38,0,19.18,5.12t5.8,13.61a17.48,17.48,0,0,1-5.8,13.38q-5.81,5.34-19.18,5.35H2562.64q-13.38,0-19.18-5.35a17.44,17.44,0,0,1-5.8-13.38q0-8.48,5.8-13.61t19.18-5.12H2613V299.31h-50.39q-13.38,0-19.18-5.13t-5.8-13.6q0-8.46,5.8-13.6t19.18-5.13h217.63q77.14,0,126,45.49t48.83,106.59q0,36.12-15.83,65.11t-38.13,45.49q-33.45,25-69.13,36.57-25.87,8.48-64.22,8.47Zm0-37.46H2770a169.07,169.07,0,0,0,77.82-18.51q36.35-18.5,53.07-45.26t16.73-54.41q0-44.16-37.91-79.39t-95.88-35.23H2650.49Z"/><path class="cls-3" d="M3471.08,498.66v53.52h-382.2V498.66Z"/><path class="cls-3" d="M3846.59,216.36V746.18H3975q13.38,0,19.17,5.12t5.8,13.61a17.48,17.48,0,0,1-5.8,13.38q-5.79,5.34-19.17,5.35H3680.69q-13.38,0-19.18-5.35a17.44,17.44,0,0,1-5.8-13.38q0-8.48,5.8-13.61t19.18-5.12h128.43V268.09l-122.19,38.36q-8.92,2.67-12.93,2.67-6.69,0-12.27-5.57a18,18,0,0,1-5.57-13.16,20,20,0,0,1,4.46-12.48q3.55-3.57,14.71-7.58Z"/></svg>